<svg width="18" height="18" viewBox="0 0 18 18" fill="none" xmlns="http://www.w3.org/2000/svg">
<rect width="18" height="18" rx="9" fill="#17B556"/>
<path d="M7.5001 10.2001L11.9251 5.7751C12.0626 5.6376 12.2376 5.56885 12.4501 5.56885C12.6626 5.56885 12.8376 5.6376 12.9751 5.7751C13.1126 5.9126 13.1813 6.0876 13.1813 6.3001C13.1813 6.5126 13.1126 6.6876 12.9751 6.8251L8.0251 11.7751C7.8751 11.9251 7.7001 12.0001 7.5001 12.0001C7.3001 12.0001 7.1251 11.9251 6.9751 11.7751L5.0251 9.8251C4.8876 9.6876 4.81885 9.5126 4.81885 9.3001C4.81885 9.0876 4.8876 8.9126 5.0251 8.7751C5.1626 8.6376 5.3376 8.56885 5.5501 8.56885C5.7626 8.56885 5.9376 8.6376 6.0751 8.7751L7.5001 10.2001Z" fill="white"/>
</svg>
